<?xml version="1.0" ?>
<!-- Uploaded to: SVG Repo, www.svgrepo.com, Generator: SVG Repo Mixer Tools -->
<svg fill="#000000" width="800px" height="800px" viewBox="0 0 64 64" xmlns="http://www.w3.org/2000/svg">
<title/>
<g id="Outline">
<path d="M47.82,31H46.49l3.25-19a3,3,0,0,0-2.28-3.41A75.23,75.23,0,0,0,31.06,7,65.55,65.55,0,0,0,15.61,8.5a3,3,0,0,0-2.25,3.41L16.54,31h-.36a5.12,5.12,0,0,0-5.12,5.12v1.76A5.12,5.12,0,0,0,16.18,43h.88V56a3,3,0,0,0,3,3h3a3,3,0,0,0,3-3V43h12V56a3,3,0,0,0,3,3h3a3,3,0,0,0,3-3V43h.76a5.12,5.12,0,0,0,5.12-5.12V36.12A5.12,5.12,0,0,0,47.82,31ZM15.33,11.58a1,1,0,0,1,.76-1.14A63.53,63.53,0,0,1,31.06,9a73.4,73.4,0,0,1,16,1.5,1,1,0,0,1,.75,1.13L44.47,31H18.57ZM24.06,56a1,1,0,0,1-1,1h-3a1,1,0,0,1-1-1V43h5Zm21,0a1,1,0,0,1-1,1h-3a1,1,0,0,1-1-1V43h5Zm5.88-18.12A3.12,3.12,0,0,1,47.82,41H16.18a3.12,3.12,0,0,1-3.12-3.12V36.12A3.12,3.12,0,0,1,16.18,33H47.82a3.12,3.12,0,0,1,3.12,3.12Z"/>
<path d="M32,14a4.5,4.5,0,1,0,4.5,4.5A4.51,4.51,0,0,0,32,14Zm0,7a2.5,2.5,0,1,1,2.5-2.5A2.5,2.5,0,0,1,32,21Z"/>
</g>
</svg>